<svg xmlns="http://www.w3.org/2000/svg" viewBox="0 0 3484.2 741.8"><path d="M446.5 2.2L149 373.4l297.4 368.2h348.1V1.7l-348 .5zM170.8 741.7l-170-210v210h170zM1020.8 135.4h-14.2V1.6h133.9v14c0 66-53.7 119.8-119.7 119.8zM2816.8 210.2V1.7h-587.5s19.4 8 28.9 12.5c131.3 62.9 222.7 200.9 222.7 360.5 0 165.4-98.1 307.5-237.1 367h789.5V210.2h-216.5zM1967.2 1.7h-598.4c0 110-40.7 197.1-102.8 259.2-62.3 62.3-138.8 101.2-259.2 101.2v379.4h945.7c-139-59.5-237.1-201.6-237.1-367 0-171.1 105-317.3 251.8-372.8zM2098.1 470c-62.9 0-114.1-51.2-114.1-114.1s51.2-114.1 114.1-114.1c62.9 0 114.1 51.2 114.1 114.1 0 62.9-51.2 114.1-114.1 114.1zM3255.8 741.7h228.5V210.2h-228.5v531.5zM.8 1.6v210l170-210H.8z"/></svg>