<?xml version="1.0" encoding="utf-8"?>
<!-- Generator: Adobe Illustrator 19.2.0, SVG Export Plug-In . SVG Version: 6.00 Build 0)  -->
<svg version="1.1" id="Layer_1" xmlns="http://www.w3.org/2000/svg" xmlns:xlink="http://www.w3.org/1999/xlink" x="0px" y="0px"
	 viewBox="0 0 3495 740" style="enable-background:new 0 0 3495 740;" xml:space="preserve">
<style type="text/css">
	.st0{fill:#FFFFFF;}
</style>
<path class="st0" d="M40,700v-85c10,12,50,72,61,85H40z M173,740c4-1-174-255-173-258v258H173z M751,700c0,0-16,0-63,0H462
	c0,0-191-236-266-329C280,270,462,36,462,36s196,0,289,0V700z M791,0c-83,0-347,0-347,0S228,270,144,371c67,83,297,369,297,369
	s152,0,247,0c47,0,103,0,103,0V0z M1100,40c-7,39-34,69-75,76c0,0,0-31,0-66V40H1100z M985,0v157c95,0,157-68,157-157H985z
	 M1980,355c0,66,52,118,118,118s119-52,119-118s-53-119-119-119S1980,289,1980,355L1980,355z M2020,355c0-44,34-79,78-79
	s79,35,79,79s-35,78-79,78S2020,399,2020,355L2020,355z M2419,700c83-97,124-215,127-330c3-116-33-241-109-330h350v167h217v493H2419
	z M3044,740V167h-217V0h-489c114,103,171,249,168,370c-3,119-62,252-181,370H3044z M3255,740h240V167h-240V740z M3295,207h160v493
	h-160V207z M101,40c-11,13-51,53-61,65V40H101z M0,0v218C-1,215,177,1,173,0H0z M985,740h879c-123-102-188-241-188-369
	c0-129,58-254,155-371h-442c10,233-169,437-404,434V740z M1748,40c-72,97-112,205-112,331c0,121,42,242,123,329h-734V473
	c3,0,7-1,10-1h-1c219-23,390-207,392-432H1748z"/>
</svg>
