<?xml version="1.0" encoding="utf-8"?>
<!-- Generator: Adobe Illustrator 19.2.0, SVG Export Plug-In . SVG Version: 6.00 Build 0)  -->
<svg version="1.1" id="Layer_1" xmlns="http://www.w3.org/2000/svg" xmlns:xlink="http://www.w3.org/1999/xlink" x="0px" y="0px"
	 viewBox="0 0 3484.2 741.8" style="enable-background:new 0 0 3484.2 741.8;" xml:space="preserve">
<path d="M446.5,2.2L149,373.4l297.4,368.2h348.1V1.7L446.5,2.2z M766.2,713.3H459.8L184.7,372.8L461.6,30h304.6V713.3L766.2,713.3z"
	/>
<path d="M170.8,741.7l-170-210v210H170.8z M29.1,611.8l82.5,101.5H29.1V611.8z"/>
<g>
	<path d="M1020.8,135.4h-14.2V1.6h133.9v14C1140.5,81.6,1086.8,135.4,1020.8,135.4z M1035,30v75.8c39.1-6.1,70-36.8,76.1-75.8H1035z
		"/>
</g>
<g>
	<path d="M2816.8,210.2V1.7h-587.5c0,0,19.4,8,28.9,12.5c131.3,62.9,222.7,200.9,222.7,360.5c0,165.4-98.1,307.5-237.1,367l0,0
		h789.5V210.2H2816.8z M3004.8,713.3H2350l-3.7-0.1c94.6-70.6,162.8-202.3,162.8-338.6c0-141.5-67.2-267.2-170.3-344.5h449v208.6
		h217V713.3z"/>
	<path d="M1967.2,1.7h-598.4c0,110-40.7,197.1-102.8,259.2c-62.3,62.3-138.8,101.2-259.2,101.2v379.4h945.7l0,0
		c-139-59.5-237.1-201.6-237.1-367C1715.4,203.4,1820.4,57.2,1967.2,1.7z M1687.1,374.6c0,136.2,64.2,262.4,162.7,338.7h-814.7
		l-0.1-323.4c195.8,0,360.6-175.1,360.6-359.9h461.9C1754.4,107.3,1687.1,233,1687.1,374.6z"/>
</g>
<g>
	<path d="M2098.1,470c-62.9,0-114.1-51.2-114.1-114.1s51.2-114.1,114.1-114.1c62.9,0,114.1,51.2,114.1,114.1
		C2212.2,418.8,2161,470,2098.1,470z M2098.1,270.2c-47.3,0-85.7,38.5-85.7,85.7s38.5,85.7,85.7,85.7s85.7-38.5,85.7-85.7
		S2145.4,270.2,2098.1,270.2z"/>
</g>
<g>
	<path d="M3255.8,741.7h228.5V210.2h-228.5V741.7z M3284.3,238.7h171.5v474.6h-171.5V238.7z"/>
</g>
<path d="M0.8,1.6v210l170-210C170.8,1.6,0.8,1.6,0.8,1.6z M29.1,30h82.5L29.1,131.5V30z"/>
</svg>
