<svg version="1.1" id="Layer_1" xmlns="http://www.w3.org/2000/svg" x="0" y="0" viewBox="0 0 3484.2 741.8" xml:space="preserve"><style>.st0{fill:#fff}</style><path class="st0" d="M446.5 2.2L149 373.4l297.4 368.2h348.1V1.7l-348 .5zm319.7 711.1H459.8L184.7 372.8 461.6 30h304.6v683.3zM170.8 741.7l-170-210v210h170zM29.1 611.8l82.5 101.5H29.1V611.8zM1020.8 135.4h-14.2V1.6h133.9v14c0 66-53.7 119.8-119.7 119.8zM1035 30v75.8c39.1-6.1 70-36.8 76.1-75.8H1035zM2816.8 210.2V1.7h-587.5s19.4 8 28.9 12.5c131.3 62.9 222.7 200.9 222.7 360.5 0 165.4-98.1 307.5-237.1 367h789.5V210.2h-216.5zm188 503.1H2350l-3.7-.1c94.6-70.6 162.8-202.3 162.8-338.6 0-141.5-67.2-267.2-170.3-344.5h449v208.6h217v474.6zM1967.2 1.7h-598.4c0 110-40.7 197.1-102.8 259.2-62.3 62.3-138.8 101.2-259.2 101.2v379.4h945.7c-139-59.5-237.1-201.6-237.1-367 0-171.1 105-317.3 251.8-372.8zm-280.1 372.9c0 136.2 64.2 262.4 162.7 338.7h-814.7l-.1-323.4c195.8 0 360.6-175.1 360.6-359.9h461.9c-103.1 77.3-170.4 203-170.4 344.6zM2098.1 470c-62.9 0-114.1-51.2-114.1-114.1s51.2-114.1 114.1-114.1 114.1 51.2 114.1 114.1c0 62.9-51.2 114.1-114.1 114.1zm0-199.8c-47.3 0-85.7 38.5-85.7 85.7s38.5 85.7 85.7 85.7 85.7-38.5 85.7-85.7-38.4-85.7-85.7-85.7zM3255.8 741.7h228.5V210.2h-228.5v531.5zm28.5-503h171.5v474.6h-171.5V238.7zM.8 1.6v210l170-210H.8zM29.1 30h82.5L29.1 131.5V30z"/></svg>